<svg xmlns="http://www.w3.org/2000/svg" width="318.209" height="51.543" viewBox="0 0 318.209 51.543">
  <g id="Group_2851" data-name="Group 2851" transform="translate(-22.433 -14.23)">
    <g id="Group_3" data-name="Group 3" transform="translate(22.433 14.23)">
      <path id="Path_7" data-name="Path 7" d="M73.922,40.788a30.868,30.868,0,0,0-.572-3.613l-.195-.886-.1-.442-.141-.432-.56-1.715A24.742,24.742,0,0,0,57.98,19.084l-1.64-.543a5.05,5.05,0,0,0-.831-.227l-.841-.188-.837-.194c-.279-.065-.568-.082-.85-.125-.569-.07-1.134-.162-1.7-.218A23.746,23.746,0,0,0,25.8,43.073c.056.569.148,1.134.218,1.7.044.283.061.571.126.85l.2.837.188.841a5.2,5.2,0,0,0,.227.831l.542,1.64A24.918,24.918,0,0,0,41.91,64.148l1.715.56.432.14.442.1.886.195A30.862,30.862,0,0,0,49,65.717a25.5,25.5,0,0,1-7.385-.585,26.817,26.817,0,0,1-6.968-2.864,28.385,28.385,0,0,1-5.852-4.9,27.649,27.649,0,0,1-4.156-6.491,26.751,26.751,0,0,1-2.055-7.49,29.2,29.2,0,0,1,.253-7.8,28.017,28.017,0,0,1,2.571-7.409A26,26,0,0,1,36.4,17.219a27.659,27.659,0,0,1,7.4-2.585,29.2,29.2,0,0,1,7.8-.254,26.858,26.858,0,0,1,7.489,2.056,27.53,27.53,0,0,1,6.488,4.156,28.352,28.352,0,0,1,4.9,5.849,26.827,26.827,0,0,1,2.865,6.966A25.547,25.547,0,0,1,73.922,40.788Z" transform="translate(-22.433 -14.23)" fill="#d80053"/>
      <path id="Path_8" data-name="Path 8" d="M31.2,42.943a24.951,24.951,0,0,0,.513,2.883,13.023,13.023,0,0,0,.367,1.4l.468,1.36a21.619,21.619,0,0,0,2.765,4.936,21.3,21.3,0,0,0,3.944,3.908,21.5,21.5,0,0,0,4.8,2.613l1.3.417a12.19,12.19,0,0,0,1.319.316l.66.148c.219.05.447.062.669.1.447.053.893.123,1.339.165A20.379,20.379,0,0,0,54.7,60.8a20.735,20.735,0,0,0,5-1.848,18.825,18.825,0,0,0,9.684-17.8c-.042-.447-.112-.892-.165-1.34-.033-.222-.045-.45-.1-.669l-.15-.659a12.172,12.172,0,0,0-.314-1.318l-.417-1.3A19.933,19.933,0,0,0,56.785,24.35l-1.36-.469a13.022,13.022,0,0,0-1.4-.367A25.159,25.159,0,0,0,51.143,23a20.084,20.084,0,0,1,5.938.37,21.456,21.456,0,0,1,5.645,2.239,22.859,22.859,0,0,1,4.766,3.915,22.171,22.171,0,0,1,3.4,5.236,21.4,21.4,0,0,1,1.7,6.071,23.665,23.665,0,0,1-.182,6.342A22.648,22.648,0,0,1,70.332,53.2a21.03,21.03,0,0,1-8.943,8.915,22.3,22.3,0,0,1-6.021,2.092,23.718,23.718,0,0,1-6.34.182,21.48,21.48,0,0,1-6.071-1.7,22.08,22.08,0,0,1-5.233-3.4,22.77,22.77,0,0,1-3.914-4.766,21.409,21.409,0,0,1-2.24-5.643A20.073,20.073,0,0,1,31.2,42.943Z" transform="translate(-24.589 -16.386)" fill="#d80053"/>
      <path id="Path_9" data-name="Path 9" d="M62.111,31.633a17.6,17.6,0,0,0-7-2.449,16.21,16.21,0,0,0-7,.716,15.858,15.858,0,0,0-3.133,1.441l-.713.479-.356.237-.334.268-.668.532c-.215.187-.41.395-.617.589a14.556,14.556,0,0,0-3.644,5.643,15.156,15.156,0,0,0,1.384,13.119,16.165,16.165,0,0,0,4.927,5.024A18.063,18.063,0,0,0,51.9,59.843a14.88,14.88,0,0,1-7.777-1,16.136,16.136,0,0,1-6.465-4.961,16.853,16.853,0,0,1-2.48-16.046A16.688,16.688,0,0,1,55.5,27.426,14.629,14.629,0,0,1,62.111,31.633Z" transform="translate(-25.34 -17.333)" fill="#d80053"/>
      <g id="Group_2" data-name="Group 2" transform="translate(15.712 15.708)">
        <path id="Path_10" data-name="Path 10" d="M54.956,58.38A11.631,11.631,0,1,1,66.587,46.75,11.63,11.63,0,0,1,54.956,58.38Zm0-20.184A8.553,8.553,0,1,0,63.51,46.75,8.554,8.554,0,0,0,54.956,38.2Z" transform="translate(-43.325 -35.118)" fill="#d80053"/>
      </g>
    </g>
    <g id="Group_2850" data-name="Group 2850" transform="translate(81.728 16.071)">
      <path id="Path_11550" data-name="Path 11550" d="M125.752,31.865v25.49H118.1v-2.4c-1.377,1.888-3.926,3.11-7.29,3.11-5.15,0-9.534-3.671-9.534-10.554V31.865h7.647V46.393c0,3.161,1.988,4.639,4.435,4.639,2.8,0,4.742-1.63,4.742-5.251V31.865Z" transform="translate(-101.28 -20.444)" fill="#05102a"/>
      <path id="Path_11551" data-name="Path 11551" d="M138.582,28.1h7.647v25.49c0,7.953-3.671,11.369-11.726,10.91V57.157c2.8.153,4.078-.866,4.078-3.568Zm-.765-6.833a4.589,4.589,0,1,1,4.588,4.589A4.635,4.635,0,0,1,137.817,21.266Z" transform="translate(-109.519 -16.678)" fill="#05102a"/>
      <path id="Path_11552" data-name="Path 11552" d="M179.857,31.865v25.49H172.21v-2.4c-1.377,1.888-3.926,3.11-7.291,3.11-5.15,0-9.534-3.671-9.534-10.554V31.865h7.647V46.393c0,3.161,1.989,4.639,4.436,4.639,2.8,0,4.742-1.63,4.742-5.251V31.865Z" transform="translate(-114.697 -20.444)" fill="#05102a"/>
      <path id="Path_11553" data-name="Path 11553" d="M231.929,41.467V57.119h-7.647V42.131c0-2.549-1.224-4.181-3.671-4.181-2.55,0-3.977,1.785-3.977,4.793V57.119h-7.647V42.131c0-2.549-1.224-4.181-3.671-4.181-2.549,0-3.977,1.785-3.977,4.793V57.119h-7.647V31.629h7.647v2.345c1.173-1.734,3.416-3.059,6.831-3.059a7.586,7.586,0,0,1,6.679,3.365c1.427-2.039,3.773-3.365,7.392-3.365C228.1,30.915,231.929,35.1,231.929,41.467Z" transform="translate(-124.196 -20.208)" fill="#05102a"/>
      <path id="Path_11554" data-name="Path 11554" d="M277.26,41.246c0,7.6-5.506,13.46-12.184,13.46a9.573,9.573,0,0,1-7.6-3.11v2.4h-7.647V18.305h7.647V30.9a9.576,9.576,0,0,1,7.6-3.11C271.754,27.788,277.26,33.651,277.26,41.246Zm-7.647,0a6.068,6.068,0,1,0-12.133,0,6.068,6.068,0,1,0,12.133,0Z" transform="translate(-138.117 -17.081)" fill="#05102a"/>
      <path id="Path_11555" data-name="Path 11555" d="M302.907,51a6.652,6.652,0,0,0,4.893-1.936l6.118,3.517c-2.5,3.468-6.271,5.251-11.114,5.251-8.718,0-14.122-5.863-14.122-13.46s5.506-13.458,13.561-13.458c7.444,0,12.95,5.761,12.95,13.458a14.821,14.821,0,0,1-.306,3.059h-18.1C297.757,50.084,300.1,51,302.907,51Zm4.69-9.278a5.247,5.247,0,0,0-5.4-4.027c-2.906,0-4.843,1.427-5.557,4.027Z" transform="translate(-147.751 -20.208)" fill="#05102a"/>
      <path id="Path_11556" data-name="Path 11556" d="M355.433,44.373c0,7.6-5.506,13.46-12.184,13.46a9.574,9.574,0,0,1-7.6-3.11V67.315h-7.647V31.629h7.647v2.4a9.576,9.576,0,0,1,7.6-3.11C349.927,30.915,355.433,36.778,355.433,44.373Zm-7.647,0a6.069,6.069,0,1,0-12.134,0,6.069,6.069,0,1,0,12.134,0Z" transform="translate(-157.502 -20.208)" fill="#05102a"/>
      <path id="Path_11557" data-name="Path 11557" d="M394.284,31.629v25.49h-7.647v-2.4a9.576,9.576,0,0,1-7.6,3.11c-6.68,0-12.185-5.863-12.185-13.46s5.506-13.458,12.185-13.458a9.578,9.578,0,0,1,7.6,3.11v-2.4Zm-7.647,12.744a6.069,6.069,0,1,0-12.135,0,6.069,6.069,0,1,0,12.135,0Z" transform="translate(-167.136 -20.208)" fill="#05102a"/>
      <path id="Path_11558" data-name="Path 11558" d="M436.524,44.373c0,7.6-5.506,13.46-12.184,13.46a9.573,9.573,0,0,1-7.6-3.11V67.315H409.1V31.629h7.647v2.4a9.576,9.576,0,0,1,7.6-3.11C431.017,30.915,436.524,36.778,436.524,44.373Zm-7.647,0a6.069,6.069,0,1,0-12.134,0,6.069,6.069,0,1,0,12.134,0Z" transform="translate(-177.61 -20.208)" fill="#05102a"/>
    </g>
  </g>
</svg>
